<svg xmlns="http://www.w3.org/2000/svg" width="197" height="56.752" viewBox="0 0 197 56.752"><g id="Group_27103" data-name="Group 27103" transform="translate(-100 -47.248)"><g id="Logo" transform="translate(100 47.248)"><path id="Path_1" data-name="Path 1" d="M375.276,223.616a9.534,9.534,0,0,1,7.009-2.849,10.62,10.62,0,0,1,3.148.488h8.13v3.335h-3.672a8.569,8.569,0,0,1,2.323,6.033,9.6,9.6,0,0,1-1.687,5.47,7.71,7.71,0,0,1,2.662,6.033,8.26,8.26,0,0,1-2.98,6.444,10.637,10.637,0,0,1-7.288,2.623,11.052,11.052,0,0,1-5.058-1.068,18.077,18.077,0,0,1-4.422-3.391l2.585-2.623a15.186,15.186,0,0,0,3.317,2.679,7.267,7.267,0,0,0,3.577.842,7.111,7.111,0,0,0,4.7-1.573,4.914,4.914,0,0,0,1.893-3.934,4.378,4.378,0,0,0-1.575-3.485,9.371,9.371,0,0,1-5.657,1.8,9.615,9.615,0,0,1-7.026-2.83,9.952,9.952,0,0,1,.017-13.994Zm2.512,11.5a6.355,6.355,0,0,0,8.994.017,6.518,6.518,0,0,0,0-9.067,6.381,6.381,0,0,0-8.994,0,6.221,6.221,0,0,0-1.835,4.553A6.112,6.112,0,0,0,377.788,235.12Z" transform="translate(-248.457 -215.638)" fill="#06c"></path><path id="Path_2" data-name="Path 2" d="M383.867,242.2V220.994h3.711V242.2Z" transform="translate(-235.278 -215.377)" fill="#06c"></path><path id="Path_3" data-name="Path 3" d="M390.561,223.954a10.913,10.913,0,0,1,7.982-3.187,10.341,10.341,0,0,1,8.094,3.6l-1.5,3.3a7.8,7.8,0,0,0-6.519-3.335,7.448,7.448,0,0,0-5.434,2.174,7.259,7.259,0,0,0-2.211,5.4,7.155,7.155,0,0,0,2.211,5.339,7.483,7.483,0,0,0,5.434,2.155,7.73,7.73,0,0,0,6.519-3.335l1.5,3.3a10.339,10.339,0,0,1-8.094,3.6,10.933,10.933,0,0,1-8-3.2,11.215,11.215,0,0,1,.017-15.792Z" transform="translate(-231.332 -215.638)" fill="#06c"></path><path id="Path_4" data-name="Path 4" d="M399.028,232.87a25.891,25.891,0,0,1,5.548-3.672l.9-.486-.413-.825a9.919,9.919,0,0,0-1.685-2.716,2.951,2.951,0,0,0-2.213-.844,5.732,5.732,0,0,0-1.8.337l.672-3.709a9.544,9.544,0,0,1,1.65-.189,5.4,5.4,0,0,1,3.747,1.313,14.153,14.153,0,0,1,2.922,4.347l4.383,9.368a12.74,12.74,0,0,0,1.48,2.677,2.162,2.162,0,0,0,1.781.881,3.208,3.208,0,0,0,1.01-.148v3.558a5.343,5.343,0,0,1-1.5.187,5.165,5.165,0,0,1-4.123-2.323,10.983,10.983,0,0,1-6.856,2.323,8.368,8.368,0,0,1-5.339-1.609,5.1,5.1,0,0,1-2.041-4.2A5.573,5.573,0,0,1,399.028,232.87Zm2.924,5.958a4.592,4.592,0,0,0,2.735.75,7.282,7.282,0,0,0,5.021-1.837.949.949,0,0,0-.094-.148.242.242,0,0,1-.056-.15l-2.735-5.846-.786.413a25.286,25.286,0,0,0-4.065,2.568,2.981,2.981,0,0,0-1.107,2.342A2.24,2.24,0,0,0,401.952,238.828Z" transform="translate(-220.014 -215.638)" fill="#06c"></path><path id="Path_5" data-name="Path 5" d="M314.712,245.147l12.064-26.716h.3l12.065,26.716h-4.233l-1.762-4.009H320.67l-1.762,4.009Zm16.974-7.419-4.759-10.941-4.757,10.941Z" transform="translate(-314.712 -218.321)" fill="#06c"></path><path id="Path_6" data-name="Path 6" d="M326.414,231.86a10.908,10.908,0,0,1,3.109-7.871,10.22,10.22,0,0,1,7.645-3.223A9.59,9.59,0,0,1,345,224.478v-3.223h3.747v29.451H345V239.241a9.588,9.588,0,0,1-7.832,3.709,10.21,10.21,0,0,1-7.645-3.221A10.906,10.906,0,0,1,326.414,231.86Zm3.672,0a7.287,7.287,0,0,0,2.174,5.337,7.2,7.2,0,0,0,5.32,2.194,7.092,7.092,0,0,0,5.264-2.194,7.692,7.692,0,0,0,0-10.679,7.1,7.1,0,0,0-5.264-2.192,7.2,7.2,0,0,0-5.32,2.192A7.3,7.3,0,0,0,330.086,231.86Z" transform="translate(-301.271 -215.638)" fill="#06c"></path><path id="Path_7" data-name="Path 7" d="M338.8,220.994h3.749v13.339a4.847,4.847,0,0,0,1.255,3.56,4.633,4.633,0,0,0,3.466,1.274,5.218,5.218,0,0,0,4.1-1.612,6.736,6.736,0,0,0,1.442-4.645V220.994h3.711V242.2h-3.711v-2.4a7.358,7.358,0,0,1-6.257,2.883,7.534,7.534,0,0,1-5.657-2.153,8,8,0,0,1-2.1-5.827Z" transform="translate(-287.049 -215.377)" fill="#06c"></path><path id="Path_8" data-name="Path 8" d="M350.557,232.87A25.925,25.925,0,0,1,356.1,229.2l.9-.486-.412-.825a9.863,9.863,0,0,0-1.687-2.716,2.95,2.95,0,0,0-2.211-.844,5.755,5.755,0,0,0-1.8.337l.675-3.709a9.521,9.521,0,0,1,1.65-.189,5.4,5.4,0,0,1,3.745,1.313,14.076,14.076,0,0,1,2.922,4.347l4.385,9.368a12.551,12.551,0,0,0,1.48,2.677,2.161,2.161,0,0,0,1.779.881,3.212,3.212,0,0,0,1.012-.148v3.558a5.357,5.357,0,0,1-1.5.187,5.165,5.165,0,0,1-4.121-2.323,10.987,10.987,0,0,1-6.856,2.323,8.36,8.36,0,0,1-5.339-1.609,5.1,5.1,0,0,1-2.043-4.2A5.575,5.575,0,0,1,350.557,232.87Zm2.922,5.958a4.6,4.6,0,0,0,2.735.75,7.275,7.275,0,0,0,5.021-1.837,1.119,1.119,0,0,0-.092-.148.242.242,0,0,1-.056-.15l-2.735-5.846-.789.413a25.482,25.482,0,0,0-4.065,2.568,2.978,2.978,0,0,0-1.1,2.342A2.242,2.242,0,0,0,353.479,238.828Z" transform="translate(-275.692 -215.638)" fill="#06c"></path><path id="Path_9" data-name="Path 9" d="M359.008,245.206V218.38h3.708v26.826Z" transform="translate(-263.832 -218.38)" fill="#06c"></path><path id="Path_10" data-name="Path 10" d="M372.1,243.654c-5.477,0-9.935-3.958-9.944-8.809v-.009a8.268,8.268,0,0,1,1.99-5.277l7.954-9.4,7.954,9.4a8.285,8.285,0,0,1,1.99,5.286C382.047,239.7,377.586,243.654,372.1,243.654Zm-6.3-8.693c.007,3.075,2.832,5.58,6.3,5.582s6.3-2.5,6.3-5.582a5.248,5.248,0,0,0-1.261-3.352l-5.036-5.954-5.039,5.956A5.191,5.191,0,0,0,365.805,234.96Z" transform="translate(-260.213 -216.342)" fill="#06c"></path></g><text id="A_Honasa_Consumer_Brand" data-name="A Honasa Consumer Brand" transform="translate(100 100)" fill="#1d1d1d" font-size="15" font-family="Roboto-Regular, Roboto" letter-spacing="0.05em" opacity="0.999"><tspan x="0" y="0">A Honasa Consumer Brand</tspan></text></g></svg>